<?xml version="1.0" standalone="no"?>
<!DOCTYPE svg PUBLIC "-//W3C//DTD SVG 20010904//EN"
 "http://www.w3.org/TR/2001/REC-SVG-20010904/DTD/svg10.dtd">
<svg version="1.0" xmlns="http://www.w3.org/2000/svg"
 width="192.000000pt" height="192.000000pt" viewBox="0 0 192.000000 192.000000"
 preserveAspectRatio="xMidYMid meet">

<g transform="translate(0.000000,192.000000) scale(0.100000,-0.100000)"
fill="#000000" stroke="none">
<path d="M125 1905 c-50 -18 -100 -71 -114 -122 -15 -54 -15 -1593 0 -1648 14
-51 73 -110 124 -124 56 -15 1594 -15 1650 0 51 14 110 73 124 124 15 56 15
1594 0 1650 -14 51 -73 110 -124 124 -28 7 -283 11 -830 11 -655 -1 -797 -3
-830 -15z m961 -732 c42 -22 69 -54 78 -95 l6 -28 -69 0 c-57 0 -71 3 -82 20
-18 26 -68 35 -93 17 -35 -25 -12 -43 85 -67 72 -18 101 -30 128 -56 33 -30
36 -37 36 -87 0 -63 -21 -99 -76 -132 -28 -17 -52 -20 -139 -20 -109 0 -146
11 -181 51 -21 24 -42 90 -34 104 3 5 35 10 70 10 60 0 65 -2 77 -27 12 -26
18 -28 68 -28 48 0 55 3 58 21 3 19 -6 24 -86 44 -109 26 -149 49 -168 97 -34
81 7 159 97 189 60 19 176 13 225 -13z m-543 6 c21 -5 53 -23 71 -40 51 -44
68 -88 68 -178 0 -118 -30 -172 -117 -212 -33 -15 -65 -19 -182 -19 l-143 0 0
230 0 230 133 0 c72 0 149 -5 170 -11z m1074 -6 c46 -21 73 -67 73 -121 0 -52
-12 -79 -52 -113 l-31 -26 47 -85 c25 -47 46 -88 46 -92 0 -3 -37 -6 -83 -6
l-83 0 -36 80 c-34 75 -38 80 -67 80 l-31 0 0 -80 0 -80 -75 0 -75 0 0 230 0
230 166 0 c134 0 173 -3 201 -17z"/>
<path d="M390 960 l0 -120 44 0 c62 0 87 23 94 88 10 109 -19 152 -103 152
l-35 0 0 -120z"/>
<path d="M1400 1040 l0 -41 61 3 c46 2 65 8 73 21 21 33 -4 52 -73 55 l-61 3
0 -41z"/>
</g>
</svg>
