<?xml version="1.0" standalone="no"?>
<!DOCTYPE svg PUBLIC "-//W3C//DTD SVG 20010904//EN"
 "http://www.w3.org/TR/2001/REC-SVG-20010904/DTD/svg10.dtd">
<svg version="1.0" xmlns="http://www.w3.org/2000/svg"
 width="512.000000pt" height="512.000000pt" viewBox="0 0 512.000000 512.000000"
 preserveAspectRatio="xMidYMid meet">
<metadata>
Created by potrace 1.16, written by Peter Selinger 2001-2019
</metadata>
<g transform="translate(0.000000,512.000000) scale(0.100000,-0.100000)"
fill="#000000" stroke="none">
<path d="M360 5101 c-91 -29 -142 -61 -211 -130 -70 -70 -106 -130 -133 -220
-14 -50 -16 -255 -16 -2191 0 -2343 -4 -2173 58 -2295 32 -64 143 -175 207
-207 122 -62 -48 -58 2295 -58 2343 0 2173 -4 2295 58 64 32 175 143 207 207
62 122 58 -48 58 2295 0 2343 4 2173 -58 2295 -32 64 -143 175 -207 207 -122
62 49 58 -2299 57 -2024 0 -2144 -1 -2196 -18z m2422 -1930 c127 -33 222 -92
275 -172 26 -39 53 -131 53 -182 l0 -27 -187 2 -187 3 -7 33 c-10 48 -44 79
-100 92 -87 21 -188 -6 -211 -56 -10 -20 -8 -29 8 -52 24 -31 83 -52 306 -105
226 -54 315 -104 373 -208 28 -51 30 -61 30 -164 0 -100 -3 -116 -29 -172 -83
-180 -305 -267 -616 -242 -181 14 -312 57 -393 128 -56 50 -99 146 -105 236
l-5 75 186 0 185 0 7 -37 c16 -91 61 -117 200 -117 132 0 165 16 165 82 0 45
-37 65 -180 98 -279 63 -367 97 -444 172 -59 57 -82 102 -95 184 -18 107 5
205 66 285 54 71 207 144 342 163 96 13 273 4 363 -19z m-1387 -14 c202 -47
333 -161 396 -345 29 -84 42 -242 30 -355 -30 -270 -152 -421 -396 -493 -51
-15 -114 -18 -422 -21 l-363 -4 0 621 0 622 343 -5 c267 -3 357 -8 412 -20z
m2776 14 c102 -17 138 -31 201 -79 208 -158 184 -498 -43 -612 -24 -13 -45
-24 -47 -25 -2 -2 50 -104 116 -226 65 -123 127 -239 136 -256 l17 -33 -224 0
-224 0 -109 225 -109 225 -72 0 -73 0 0 -225 0 -225 -200 0 -200 0 0 620 0
620 388 0 c213 0 412 -4 443 -9z"/>
<path d="M1040 2561 l0 -321 103 0 c86 0 110 4 153 24 90 42 116 99 122 267 7
190 -24 270 -122 321 -32 18 -63 23 -148 26 l-108 4 0 -321z"/>
<path d="M3740 2780 l0 -110 150 0 150 0 32 29 c29 26 33 35 33 81 0 46 -4 55
-33 81 l-32 29 -150 0 -150 0 0 -110z"/>
</g>
</svg>
